# AST/ASF file generated using VICON BodyLanguage
# -----------------------------------------------
:version 1.10
:name VICON
:units
  mass 1.0
  length 0.45
  angle deg
:documentation
   .ast/.asf automatically generated from VICON data using
   VICON BodyBuilder and BodyLanguage model FoxedUp or BRILLIANT.MOD
:root
   order TX TY TZ RX RY RZ
   axis XYZ
   position 0 0 0  
   orientation 0 0 0 
:bonedata
  begin
     id 1 
     name lhipjoint
     direction 0.643824 -0.71708 0.266994 
     length 2.52133 
     axis 0 0 0  XYZ
  end
  begin
     id 2 
     name lfemur
     direction 0.34202 -0.939693 0  
     length 7.51824  
     axis 0 0 20  XYZ
    dof rx ry rz
    limits (-160.0 20.0)
           (-70.0 70.0)
           (-60.0 70.0)
  end
  begin
     id 3 
     name ltibia
     direction 0.34202 -0.939693 0   
     length 7.3685   
     axis 0 0 20   XYZ
    dof rx
    limits (-10.0 170.0)
  end
  begin
     id 4 
     name lfoot
     direction 0.105419 -0.289636 0.951314   
     length 2.20972   
     axis -90 7.62852e-016 20   XYZ
    dof rx rz
    limits (-45.0 90.0)
           (-70.0 20.0)
  end
  begin
     id 5 
     name ltoes
     direction 1.53549e-011 -4.21833e-011 1   
     length 1.10139   
     axis -90 7.62852e-016 20   XYZ
    dof rx
    limits (-90.0 20.0)
  end
  begin
     id 6 
     name rhipjoint
     direction -0.608823 -0.743445 0.276811   
     length 2.43192  
     axis 0 0 0  XYZ 
  end
  begin
     id 7 
     name rfemur
     direction -0.34202 -0.939693 0   
     length 7.69715   
     axis 0 0 -20   XYZ
    dof rx ry rz
    limits (-160.0 20.0)
           (-70.0 70.0)
           (-70.0 60.0)
  end
  begin
     id 8 
     name rtibia
     direction -0.34202 -0.939693 0   
     length 7.44924   
     axis 0 0 -20   XYZ
    dof rx
    limits (-10.0 170.0)
 end
 begin
     id 9 
     name rfoot
     direction -0.103614 -0.284677 0.953007   
     length 2.22623  
     axis -90 -7.62852e-016 -20   XYZ
    dof rx rz
    limits (-45.0 90.0)
           (-20.0 70.0)
  end
  begin
     id 10 
     name rtoes
     direction -1.53537e-011 -4.22026e-011 1   
     length 1.11   
     axis -90 -7.62852e-016 -20   XYZ
    dof rx
    limits (-90.0 20.0)
  end
  begin
     id 11 
     name lowerback
     direction -0.0101212 0.99662 -0.0815298   
     length 2.08277   
     axis 0 0 0   XYZ
    dof rx ry rz
    limits (-20.0 45.0)
           (-30.0 30.0)
           (-30.0 30.0)
  end
  begin
     id 12 
     name upperback
     direction 0.024314 0.999591 -0.0150645   
     length 2.08524   
     axis 0 0 0   XYZ
    dof rx ry rz
    limits (-20.0 45.0)
           (-30.0 30.0)
           (-30.0 30.0)
  end
  begin
     id 13 
     name thorax
     direction 0.0285959 0.999323 0.0231357   
     length 2.09645   
     axis 0 0 0   XYZ
    dof rx ry rz
    limits (-20.0 45.0)
           (-30.0 30.0)
           (-30.0 30.0)
  end
  begin
     id 14 
     name lowerneck
     direction -0.065512 0.979301 0.191515   
     length 1.63798   
     axis 0 0 0   XYZ
    dof rx ry rz
    limits (-20.0 45.0)
           (-30.0 30.0)
           (-30.0 30.0)
  end
  begin
     id 15 
     name upperneck
     direction 0.0498479 0.98191 -0.182667   
     length 1.68731   
     axis 0 0 0   XYZ
    dof rx ry rz
    limits (-20.0 45.0)
           (-30.0 30.0)
           (-30.0 30.0)
  end
  begin
     id 16
     name head
     direction 0.0230358 0.996257 -0.0833175  
     length 1.69785  
     axis 0 0 0   XYZ
    dof rx ry rz
    limits (-20.0 45.0)
           (-30.0 30.0)
           (-30.0 30.0)
  end
  begin
     id 17 
     name lclavicle
     direction 0.967963 0.201165 -0.150269  
     length 3.63976  
     axis 0 0 0   XYZ
    dof ry rz
    limits (-20.0 10.0)
           (0.0 20.0)
  end
  begin
     id 18 
     name lhumerus
     direction 1 -4.48954e-011 -2.92837e-028   
     length 5.32462   
     axis 180 -30 -90   XYZ
    dof rx ry rz
    limits (-60.0 90.0)
           (-90.0 90.0)
           (-90.0 90.0)
  end
  begin
     id 19
     name lradius
     direction 1 -4.48958e-011 -6.39511e-027   
     length 3.48402   
     axis 180 -30 -90   XYZ
    dof rx
    limits (-10.0 170.0)
  end
  begin
     id 20
     name lwrist
     direction 1 -4.48975e-011 -1.1413e-026   
     length 1.74201   
     axis 6.88575e-015 90 90   XYZ
    dof ry
    limits (-180.0 0.0)
 end
  begin
     id 21 
     name lhand
     direction 1 -4.48899e-011 -2.28192e-026   
     length 0.572476   
     axis 1.45643e-014 90 90   XYZ
    dof rx rz
    limits (-90.0 90.0)
           (-45.0 45.0)
  end
  begin
     id 22 
     name lfingers
     direction 1 -4.49155e-011 -4.5684e-026   
     length 0.461545   
     axis 2.91283e-014 90 90   XYZ
    dof rx
    limits (0.0 90.0)
  end
  begin
     id 23
     name lthumb
     direction 0.707107 -6.34943e-011 0.707107   
     length 0.662688   
     axis -90 45 -2.25915e-014   XYZ
    dof rx rz
    limits (-45.0 45.0)
           (-45.0 45.0)
  end
  begin
     id 24 
     name rclavicle
     direction -0.964103 0.264019 -0.0282629   
     length 3.54491  
     axis 0 0 0   XYZ 
    dof ry rz
    limits (-10.0 20.0)
           (-20.0 0.0)
  end
  begin
     id 25 
     name rhumerus
     direction -1 -4.48964e-011 -2.45032e-027  
     length 5.33589   
     axis 180 30 90   XYZ
    dof rx ry rz
    limits (-90.0 60.0)
           (-90.0 90.0)
           (-90.0 90.0)
  end
  begin
     id 26 
     name rradius
     direction -1 -4.48987e-011 -1.55093e-027   
     length 3.64134   
     axis 180 30 90   XYZ
    dof rx
    limits (-10.0 170.0)
  end
  begin
     id 27 
     name rwrist
     direction -1 -4.4897e-011 -1.14128e-026   
     length 1.82067   
     axis 6.88575e-015 -90 -90   XYZ
    dof ry
    limits (-180.0 0.0)
  end
  begin
     id 28
     name rhand
     direction -1 -4.49021e-011 -2.28301e-026   
     length 0.734811   
     axis 1.45643e-014 -90 -90   XYZ
    dof rx rz
    limits (-90.0 90.0)
           (-45.0 45.0)
  end
  begin
     id 29
     name rfingers
     direction -1 -4.48862e-011 -4.56319e-026   
     length 0.592424   
     axis 2.91283e-014 -90 -90   XYZ
    dof rx
    limits (0.0 90.0)
  end
  begin
     id 30
     name rthumb
     direction -0.707107 -6.34978e-011 0.707107   
     length 0.850605   
     axis -90 -45 2.25915e-014   XYZ
    dof rx rz
    limits (-45.0 45.0)
           (-45.0 45.0)
  end
:hierarchy
  begin
    root lhipjoint rhipjoint lowerback
    lhipjoint lfemur
    lfemur ltibia
    ltibia lfoot
    lfoot ltoes
    rhipjoint rfemur
    rfemur rtibia
    rtibia rfoot
    rfoot rtoes
    lowerback upperback
    upperback thorax
    thorax lowerneck lclavicle rclavicle
    lowerneck upperneck
    upperneck head
    lclavicle lhumerus
    lhumerus lradius
    lradius lwrist
    lwrist lhand lthumb
    lhand lfingers
    rclavicle rhumerus
    rhumerus rradius
    rradius rwrist
    rwrist rhand rthumb
    rhand rfingers
  end

#!OML:ASF F:\VICON\USERDATA\INSTALL\rory3\rory3.ASF
:FULLY-SPECIFIED
:DEGREES
1
root 0.133566 17.7907 12.0633 -170.81 -3.47904 177.304
lowerback -1.25495 -1.3286 -4.30214
upperback -1.49259 -1.77021 1.75058
thorax -0.647125 -0.85437 4.20334
lowerneck -14.3113 -2.64364 -9.07663
upperneck 40.4345 4.5697 0.248721
head 17.1326 2.22129 3.09255
rclavicle 3.62782e-015 2.14687e-014
rhumerus -33.8431 -7.04032 -77.7741
rradius 33.6937
rwrist 18.2002
rhand -17.2199 3.77746
rfingers 7.12502
rthumb 9.02312 -26.0096
lclavicle 3.62782e-015 2.14687e-014
lhumerus -33.4563 9.58778 81.6475
lradius 29.3097
lwrist -4.39483
lhand -17.6621 24.5629
lfingers 7.12502
lthumb 8.59641 54.3679
rfemur -17.6151 3.99814 21.1623
rtibia 31.6808
rfoot -20.8192 -2.05583
rtoes 14.9944
lfemur -13.0409 -6.78593 -22.7409
ltibia 22.3378
lfoot -14.6591 1.89742
ltoes -5.32517
2
root 0.13483 17.7924 12.065 -170.812 -3.52035 177.305
lowerback -1.21743 -1.33326 -4.3222
upperback -1.49435 -1.77765 1.75816
thorax -0.668422 -0.857234 4.22347
lowerneck -14.3649 -2.65437 -9.09835
upperneck 40.5042 4.57754 0.280594
head 17.1838 2.22529 3.11834
rclavicle -2.08227e-014 -1.66979e-014
rhumerus -33.8278 -6.96703 -77.7798
rradius 33.6645
rwrist 18.203
rhand -17.2956 3.81419
rfingers 7.12502
rthumb 8.95009 -25.976
lclavicle -2.08227e-014 -1.66979e-014
lhumerus -33.4512 9.63646 81.6305
lradius 29.2934
lwrist -4.42396
lhand -17.5933 24.6397
lfingers 7.12502
lthumb 8.66285 54.442
rfemur -17.6228 3.95446 21.1748
rtibia 31.6965
rfoot -20.8326 -2.07824
rtoes 14.6997
lfemur -13.0295 -6.77399 -22.7297
ltibia 22.2975
lfoot -14.6153 1.83796
ltoes -5.13411
3
root 0.135352 17.7996 12.067 -170.814 -3.5465 177.258
lowerback -1.12508 -1.33362 -4.35838
upperback -1.52543 -1.78218 1.74629
thorax -0.751125 -0.856515 4.23451
lowerneck -14.3477 -2.66739 -9.12379
upperneck 40.4984 4.56054 0.287053
head 17.177 2.2164 3.12209
rclavicle -1.18774e-014 -2.8625e-014
rhumerus -33.8595 -6.94808 -77.7349
rradius 33.6286
rwrist 18.2402
rhand -17.3058 3.95532
rfingers 7.12502
rthumb 8.94025 -25.8353
lclavicle -1.18774e-014 -2.8625e-014
lhumerus -33.5157 9.70347 81.6015
lradius 29.3182
lwrist -4.50527
lhand -17.5124 24.6831
lfingers 7.12502
lthumb 8.74086 54.4821
rfemur -17.6446 3.96556 21.1272
rtibia 31.7378
rfoot -20.889 -2.17232
rtoes 14.1863
lfemur -12.993 -6.55745 -22.8133
ltibia 22.2326
lfoot -14.596 1.71573
ltoes -6.14588
4
root 0.135458 17.7956 12.0677 -170.84 -3.54846 177.255
lowerback -1.11396 -1.31688 -4.3476
upperback -1.50147 -1.75913 1.72475
thorax -0.73602 -0.845572 4.20622
lowerneck -14.3543 -2.68741 -9.10506
upperneck 40.4925 4.54187 0.242527
head 17.1793 2.20526 3.09535
rclavicle 1.7344e-014 -1.19271e-014
rhumerus -33.8719 -7.06206 -77.6907
rradius 33.6464
rwrist 18.4476
rhand -17.2792 4.11241
rfingers 7.12502
rthumb 8.96593 -25.6771
lclavicle 1.7344e-014 -1.19271e-014
lhumerus -33.5107 9.68935 81.577
lradius 29.3437
lwrist -4.53821
lhand -17.403 24.7376
lfingers 7.12502
lthumb 8.84648 54.5322
rfemur -17.6233 3.99868 21.119
rtibia 31.7279
rfoot -20.8942 -2.1781
rtoes 14.3079
lfemur -12.9788 -6.7468 -22.7819
ltibia 22.2309
lfoot -14.5839 1.75559
ltoes -5.19949
5
root 0.136419 17.7863 12.0686 -170.854 -3.56771 177.313
lowerback -1.14563 -1.31987 -4.29521
upperback -1.47003 -1.76125 1.74219
thorax -0.68653 -0.848746 4.19331
lowerneck -14.3469 -2.68443 -9.07132
upperneck 40.4665 4.56704 0.155721
head 17.1666 2.20911 3.05307
rclavicle -1.0138e-014 -2.22639e-014
rhumerus -33.856 -7.10278 -77.6691
rradius 33.6895
rwrist 18.5761
rhand -17.2119 3.97511
rfingers 7.12502
rthumb 9.03088 -25.8116
lclavicle -1.0138e-014 -2.22639e-014
lhumerus -33.4626 9.71572 81.572
lradius 29.314
lwrist -4.548
lhand -17.2826 24.768
lfingers 7.12502
lthumb 8.96263 54.5576
rfemur -17.6482 3.96328 21.2022
rtibia 31.7783
rfoot -20.865 -2.18854
rtoes 14.2379
lfemur -12.9705 -6.25303 -22.8188
ltibia 22.1917
lfoot -14.527 1.72298
ltoes -7.80053
